<?xml version="1.0" encoding="utf-8"?>
<!-- Generator: Adobe Illustrator 28.0.0, SVG Export Plug-In . SVG Version: 6.00 Build 0)  -->
<svg version="1.1" id="Livello_1" xmlns="http://www.w3.org/2000/svg" xmlns:xlink="http://www.w3.org/1999/xlink" x="0px" y="0px"
	 viewBox="0 0 740.2 129.4" style="enable-background:new 0 0 740.2 129.4;" xml:space="preserve">
<g>
	<path d="M26.1,35.6l5.4-5.4c3.6-3.6,5.7-7.2,5.7-11.7c0-7.8-6.9-13.4-15.8-13.4H0v53h7V34.8l21,23.3h10.3L15.5,35.6L26.1,35.6
		L26.1,35.6z M7,11.6h13.3c5.6,0,9.8,3.6,9.8,9s-4.2,8.9-9.8,8.9H7V11.6z"/>
	<rect x="49.3" y="5.1" width="7" height="53"/>
	<path d="M94.2,51.8c-10,0-18.9-8.1-18.9-19.9s8.7-20.5,18.8-20.5c6.4,0,11.2,3.2,14.2,6.9l5.4-5.3c-4.1-5.3-10.8-8.6-19.6-8.6
		c-3.7,0-7.3,1-9.5,2.1l-7.3,7.7c-5.2,5.3-9.1,12.2-9.1,19.2c0,14.8,11.2,25.5,25.8,25.5c8.6,0,15.5-3.6,19.9-9.1l-4.6-5.2
		C106.2,48.5,101.3,51.8,94.2,51.8L94.2,51.8z"/>
	<path d="M145.9,51.8c-10,0-18.9-8.1-18.9-19.9s8.7-20.5,18.8-20.5c6.4,0,11.2,3.2,14.2,6.9l5.4-5.3c-4.1-5.3-10.8-8.6-19.6-8.6
		c-3.7,0-7.4,1-9.5,2.1l-7.4,7.7c-5.2,5.3-9.1,12.2-9.1,19.2c0,14.8,11.2,25.5,25.8,25.5c8.6,0,15.5-3.6,19.9-9.1l-4.6-5.2
		C157.9,48.5,153,51.8,145.9,51.8L145.9,51.8z"/>
	<path d="M189.3,5.1l-19,53h7.3l4.9-13.8h23.6l4.9,13.8h7.7l-19-53L189.3,5.1L189.3,5.1z M184.8,37.7l9.6-26.9l9.4,26.9H184.8z"/>
	<path d="M266.5,58.2l-22.7-22.6h10.5l5.4-5.4c3.6-3.6,5.7-7.2,5.7-11.7c0-7.8-6.9-13.4-15.8-13.4h-21.3v53h7V34.8l21,23.3
		L266.5,58.2L266.5,58.2z M235.2,11.6h13.3c5.6,0,9.8,3.6,9.8,9s-4.2,8.9-9.8,8.9h-13.3V11.6L235.2,11.6z"/>
	<path d="M295.7,5.1h-18.2v53h25.6l7.8-8c5.8-5.8,10.4-12.1,10.4-20.9C321.3,15.3,310.6,5.1,295.7,5.1L295.7,5.1z M296.5,51.5h-12
		V11.8h9.9c11.8,0.1,19.6,8.3,19.6,19.5C313.9,43.5,305.1,51.5,296.5,51.5L296.5,51.5z"/>
	<path d="M355.8,58.9c4.1,0,8-0.8,10.5-2l6.1-6.3c5.1-5.2,9-11.6,9-20.3c-0.1-14.8-11.7-26-26.5-26c-4.5,0-8.3,1-10.2,2.1l-6.1,6.3
		c-4.8,4.9-8.9,11.4-8.9,20.2C329.6,47.5,341.3,58.9,355.8,58.9L355.8,58.9z M354.1,11.1c10.3,0,20.2,8,20.2,21.7
		c0,12.3-8.5,19.4-17.7,19.4c-10.6,0-19.9-8.2-19.9-21.6C336.7,18.2,345,11.1,354.1,11.1z"/>
	<polygon points="447.1,51.5 415.9,51.5 446.4,12.8 446.4,5.1 409.2,5.1 409.2,11.7 438.6,11.7 408.5,50.5 408.5,58.2 447.1,58.2 	
		"/>
	<path d="M479.1,4.4c-4.5,0-8.3,1-10.2,2.1l-6.1,6.3c-4.8,4.9-8.9,11.4-8.9,20.2c0,14.5,11.7,25.9,26.1,25.9c4.1,0,8-0.8,10.5-2
		l6.1-6.3c5.1-5.2,9-11.6,9-20.3C505.6,15.6,494,4.4,479.1,4.4L479.1,4.4z M480.8,52.2c-10.6,0-19.9-8.2-19.9-21.6
		c0-12.4,8.3-19.5,17.4-19.5c10.3,0,20.2,8,20.2,21.7C498.6,45,490.1,52.2,480.8,52.2z"/>
	<path d="M539.9,51.8c-10,0-18.9-8.1-18.9-19.9s8.7-20.5,18.8-20.5c6.4,0,11.2,3.2,14.2,6.9l5.4-5.3c-4.1-5.3-10.8-8.6-19.6-8.6
		c-3.7,0-7.3,1-9.5,2.1l-7.3,7.7c-5.2,5.3-9.1,12.2-9.1,19.2c0,14.8,11.2,25.5,25.8,25.5c8.6,0,15.5-3.6,19.9-9.1l-4.6-5.2
		C551.9,48.5,547,51.8,539.9,51.8L539.9,51.8z"/>
	<path d="M591.6,51.8c-10,0-18.9-8.1-18.9-19.9s8.7-20.5,18.8-20.5c6.4,0,11.2,3.2,14.2,6.9l5.4-5.3c-4.1-5.3-10.8-8.6-19.6-8.6
		c-3.7,0-7.3,1-9.5,2.1l-7.3,7.7c-5.2,5.3-9.1,12.2-9.1,19.2c0,14.8,11.2,25.5,25.8,25.5c8.6,0,15.5-3.6,19.9-9.1l-4.6-5.2
		C603.6,48.5,598.7,51.8,591.6,51.8L591.6,51.8z"/>
	<polygon points="656.8,27.6 629,27.6 629,5.1 622.1,5.1 622.1,58.2 629,58.2 629,34.3 656.8,34.3 656.8,58.2 663.8,58.2 663.8,5.1 
		656.8,5.1 	"/>
	<polygon points="679.6,58.2 712.6,58.2 712.6,51.5 686.6,51.5 686.6,34.7 709.9,34.7 709.9,28.2 686.6,28.2 686.6,11.8 712.6,11.8 
		712.6,5.1 679.6,5.1 	"/>
	<path d="M267,106.3l-4.6-1.2c-3.6-0.9-5.2-2.2-5.2-4.5c0-2.7,2.2-4.8,6.1-4.8s5.9,2.1,6.2,5.2h6.8c0-6.8-4.7-11.3-12.5-11.3
		c-2.8,0-4.7,0.7-5.5,1.1l-3.7,3.8c-2.8,2.9-3.6,5.5-3.6,7.9c0,3.5,1.6,7.3,8.6,9.2l4.7,1.3c4.4,1.2,5.8,3,5.8,5.2
		c0,2.7-2.3,5.1-6.6,5.1c-3.2,0-5.9-1.2-6.4-4.8h-6.8c0,6.8,5.1,10.9,12.8,10.9c2.5,0,4.8-0.4,5.8-0.9l3.8-3.9
		c2.7-2.7,3.9-5.5,3.9-8.3C276.6,112.3,274.3,108.2,267,106.3L267,106.3z"/>
	<polygon points="297.5,79.1 290.8,79.1 290.8,90.5 282.2,90.5 282.2,96.8 290.8,96.8 290.8,128.7 297.5,128.7 297.5,96.8 
		306.1,96.8 306.1,90.5 297.5,90.5 	"/>
	<path d="M338.3,113.1c0,6.1-3.6,9.8-8.8,9.8s-8.7-3.7-8.7-9.8V90.5H314v24.2c0,9.8,6.6,14.7,13.7,14.7c2.6,0,4.5-0.4,5.6-1.1
		l4.9-5.2v5.5h6.8V90.5h-6.8L338.3,113.1L338.3,113.1z"/>
	<path d="M386,95.6c-2.7-3.6-7.5-5.9-12.8-5.9c-3,0-5.2,0.6-6.8,1.4l-4.9,5.1c-4.9,5-6.4,9.7-6.4,14.3c0,10.5,8.3,19,18.9,19
		c2.6,0,5.2-0.5,6.5-1.2l5.5-5.6v6.1h6.8V75.5H386L386,95.6L386,95.6z M375.1,123.2c-6.3,0-13.3-5.1-13.4-14.7
		c-0.1-8,5.1-12.7,11.2-12.7s13.5,5.1,13.6,14.7C386.6,118.5,381.3,123.2,375.1,123.2z"/>
	<rect x="404.5" y="77.8" width="8.8" height="8.3"/>
	<rect x="405.6" y="90.5" width="6.8" height="38.2"/>
	<path d="M441.2,89.7c-3.4,0-6.1,0.8-7.3,1.4l-5.6,5.8c-4.1,4.2-5.9,8.8-5.9,13.7c0,10.4,8.7,18.8,19.5,18.8c3,0,5.5-0.7,7.3-1.5
		l5.4-5.5c4.5-4.5,6.1-9.1,6.1-13.9C460.6,98.1,451.9,89.7,441.2,89.7L441.2,89.7z M442.7,123.2c-7,0-13.8-6.4-13.8-14.8
		c0-7.9,5.5-12.6,11.4-12.6c7,0,13.9,6.4,13.9,14.8C454.2,118.5,448.6,123.2,442.7,123.2L442.7,123.2z"/>
	<path d="M730.1,0c-5.7,0-10.1,4.4-10.1,10.3s4.5,10.3,10.1,10.3s10.1-4.4,10.1-10.3S735.8,0,730.1,0z M730.1,18.5
		c-4.5,0-7.8-3.5-7.8-8.2s3.3-8.2,7.8-8.2s7.8,3.5,7.8,8.2S734.6,18.5,730.1,18.5z"/>
	<path d="M734.4,12.4c-0.2-1-0.6-1.6-1.5-1.8v-0.1c1.2-0.4,1.8-1.3,1.8-2.4c0-1.9-1.7-3-3.7-3h-5v10.3h2.8v-3.7h1.4
		c1,0,1.5,0.4,1.6,1.4c0.1,1,0.2,2.2,0.4,2.4h2.7v-0.2C734.5,14.9,734.7,13.7,734.4,12.4L734.4,12.4z M730.5,9.6h-1.7V7.3h1.7
		c1,0,1.4,0.4,1.4,1.2S731.5,9.6,730.5,9.6L730.5,9.6z"/>
</g>
</svg>
